HIERARCHY
ROOT hip
{
	OFFSET 0.000000 0.000000 0.000000
	CHANNELS 6 Xposition Yposition Zposition Xrotation Zrotation Yrotation 
	JOINT abdomen
	{
		OFFSET 0.000000 3.422050 0.000000
		CHANNELS 3 Xrotation Zrotation Yrotation 
		JOINT chest
		{
			OFFSET 0.000000 8.486693 -0.684411
			CHANNELS 3 Xrotation Zrotation Yrotation 
			JOINT neck
			{
				OFFSET 0.000000 10.266162 -0.273764
				CHANNELS 3 Xrotation Zrotation Yrotation 
				JOINT head
				{
					OFFSET 0.000000 3.148285 0.000000
					CHANNELS 3 Xrotation Zrotation Yrotation 
					End Site
					{
						OFFSET 0.000000 3.148289 0.000000
					}
				}
			}
			JOINT lCollar
			{
				OFFSET 3.422053 6.707223 -0.821293
				CHANNELS 3 Yrotation Zrotation Xrotation 
				JOINT lShldr
				{
					OFFSET 3.285171 0.000000 0.000000
					CHANNELS 3 Zrotation Yrotation Xrotation 
					JOINT lForeArm
					{
						OFFSET 10.129278 0.000000 0.000000
						CHANNELS 3 Yrotation Zrotation Xrotation 
						JOINT lHand
						{
							OFFSET 8.486692 0.000000 0.000000
							CHANNELS 3 Zrotation Yrotation Xrotation 
							End Site
							{
								OFFSET 4.106464 0.000000 0.000000
							}
						}
					}
				}
			}
			JOINT rCollar
			{
				OFFSET -3.558935 6.707223 -0.821293
				CHANNELS 3 Yrotation Zrotation Xrotation 
				JOINT rShldr
				{
					OFFSET -3.148289 0.000000 0.000000
					CHANNELS 3 Zrotation Yrotation Xrotation 
					JOINT rForeArm
					{
						OFFSET -10.266159 0.000000 0.000000
						CHANNELS 3 Yrotation Zrotation Xrotation 
						JOINT rHand
						{
							OFFSET -8.349810 0.000000 0.000000
							CHANNELS 3 Zrotation Yrotation Xrotation 
							End Site
							{
								OFFSET -4.106464 0.000000 0.000000
							}
						}
					}
				}
			}
		}
	}
	JOINT lThigh
	{
		OFFSET 5.338403 -1.642589 1.368821
		CHANNELS 3 Xrotation Zrotation Yrotation 
		JOINT lShin
		{
			OFFSET -2.053232 -20.121670 0.000000
			CHANNELS 3 Xrotation Zrotation Yrotation 
			JOINT lFoot
			{
				OFFSET 0.000000 -19.300380 -1.231939
				CHANNELS 3 Xrotation Yrotation Zrotation 
				End Site
				{
					OFFSET 0.000000 -2.463878 4.653993
				}
			}
		}
	}
	JOINT rThigh
	{
		OFFSET -5.338403 -1.642589 1.368821
		CHANNELS 3 Xrotation Zrotation Yrotation 
		JOINT rShin
		{
			OFFSET 2.053232 -20.121670 0.000000
			CHANNELS 3 Xrotation Zrotation Yrotation 
			JOINT rFoot
			{
				OFFSET 0.000000 -19.300380 -1.231939
				CHANNELS 3 Xrotation Yrotation Zrotation 
				End Site
				{
					OFFSET 0.000000 -2.463878 4.653993
				}
			}
		}
	}
}
MOTION
Frames: 11
Frame Time: 0.033264
0.000000 43.528500 0.000000 0.000000 0.000000 0.000000 0.000000 0.000000 0.000000 0.000000 0.000000 0.000000 0.000000 0.000000 0.000000 0.000000 0.000000 0.000000 0.000000 0.000000 0.000000 0.000000 0.000000 0.000000 0.000000 0.000000 0.000000 0.000000 0.000000 0.000000 0.000000 0.000000 0.000000 0.000000 0.000000 0.000000 0.000000 0.000000 0.000000 0.000000 0.000000 0.000000 0.000000 0.000000 0.000000 0.000000 0.000000 0.000000 0.000000 0.000000 0.000000 0.000000 0.000000 0.000000 0.000000 0.000000 0.000000 0.000000 0.000000 0.000000 
0.000000 7.522690 0.000000 -48.026028 0.432040 -1.982361 31.473249 -13.331899 0.837377 25.382343 5.609522 -3.063071 5.999416 1.998042 -0.002108 -24.333502 9.996986 9.000123 12.818349 -14.306571 -3.182500 -58.918037 -1.490264 -4.198714 -16.721472 9.920465 -22.008644 31.079367 9.632678 59.290344 28.904747 -6.407105 -5.471081 -10.008028 42.136082 -25.320244 16.100939 9.815149 -62.024929 19.920647 16.162338 -19.364878 -24.200228 38.210922 90.442467 92.245514 -4.893553 -5.051108 59.675430 11.651778 -55.361794 -90.405777 -20.052402 -6.606799 96.559227 -7.353359 1.707714 39.493183 1.618549 20.357464 
0.000000 7.522690 0.000000 -48.026028 0.432040 -1.982361 31.473249 -13.331899 0.837377 25.382343 5.609522 -3.063071 6.052777 2.061756 -0.067437 -24.333504 9.996987 9.000123 12.818349 -14.306571 -3.182500 -58.918037 -1.490264 -4.198714 -16.721474 9.920465 -22.008644 31.079367 9.632678 59.290344 28.904749 -6.407106 -5.471081 -10.008029 42.136082 -25.320248 16.260717 9.692641 -61.617027 19.384502 16.276846 -19.595798 -24.200230 38.210926 90.442467 92.245522 -4.893553 -5.051108 59.675430 11.651778 -55.361794 -90.405777 -20.052402 -6.606799 96.559227 -7.353359 1.707714 39.493183 1.618549 20.357464 
0.000000 7.522690 0.000000 -48.026028 0.432040 -1.982361 31.473249 -13.331900 0.837378 25.382343 5.609523 -3.063072 6.106074 2.125542 -0.132721 -24.333502 9.996986 9.000123 12.818349 -14.306571 -3.182500 -58.918045 -1.490264 -4.198714 -16.721472 9.920465 -22.008644 31.079367 9.632680 59.290344 28.904747 -6.407105 -5.471081 -10.008028 42.136082 -25.320244 16.421598 9.571048 -61.208214 18.846392 16.389521 -19.828474 -24.200228 38.210922 90.442467 92.245514 -4.893553 -5.051108 59.675430 11.651779 -55.361801 -90.405777 -20.052404 -6.606801 96.559227 -7.353359 1.707714 39.493183 1.618549 20.357468 
0.000000 7.522690 0.000000 -48.026028 0.432040 -1.982361 31.473249 -13.331899 0.837377 25.382343 5.609523 -3.063072 6.159314 2.189401 -0.197961 -24.333506 9.996987 9.000123 12.818349 -14.306572 -3.182500 -58.918045 -1.490264 -4.198714 -16.721476 9.920465 -22.008644 31.079369 9.632679 59.290352 28.904749 -6.407106 -5.471081 -10.008029 42.136082 -25.320248 16.583578 9.450382 -60.798500 18.306328 16.500326 -20.062889 -24.200233 38.210930 90.442467 92.245522 -4.893553 -5.051108 59.675438 11.651781 -55.361797 -90.405777 -20.052402 -6.606799 96.559227 -7.353359 1.707715 39.493183 1.618550 20.357466 
0.000000 7.522690 0.000000 -48.026024 0.432040 -1.982361 31.473242 -13.331898 0.837377 25.382339 5.609522 -3.063071 6.212491 2.253331 -0.263157 -24.333500 9.996986 9.000122 12.818348 -14.306571 -3.182500 -58.918037 -1.490264 -4.198714 -16.721472 9.920465 -22.008644 31.079367 9.632678 59.290344 28.904747 -6.407105 -5.471080 -10.008027 42.136082 -25.320242 16.746641 9.330658 -60.387867 17.764341 16.609238 -20.299017 -24.200230 38.210922 90.442459 92.245514 -4.893553 -5.051107 59.675430 11.651778 -55.361790 -90.405762 -20.052402 -6.606800 96.559227 -7.353358 1.707714 39.493179 1.618550 20.357462 
0.000000 7.522690 0.000000 -48.026028 0.432040 -1.982361 31.473249 -13.331899 0.837377 25.382343 5.609522 -3.063071 6.265606 2.317334 -0.328307 -24.333502 9.996986 9.000123 12.818349 -14.306570 -3.182500 -58.918037 -1.490264 -4.198714 -16.721472 9.920465 -22.008644 31.079367 9.632678 59.290344 28.904747 -6.407105 -5.471081 -10.008028 42.136078 -25.320244 16.910791 9.211901 -59.976391 17.220453 16.716219 -20.536835 -24.200228 38.210922 90.442467 92.245514 -4.893553 -5.051108 59.675430 11.651778 -55.361794 -90.405777 -20.052402 -6.606799 96.559219 -7.353358 1.707714 39.493183 1.618550 20.357464 
0.000000 7.522690 0.000000 -48.026028 0.432040 -1.982361 31.473249 -13.331899 0.837377 25.382343 5.609522 -3.063071 6.318663 2.381409 -0.393413 -24.333502 9.996986 9.000123 12.818349 -14.306571 -3.182500 -58.918037 -1.490264 -4.198714 -16.721472 9.920465 -22.008644 31.079367 9.632678 59.290344 28.904747 -6.407105 -5.471081 -10.008028 42.136082 -25.320244 17.076012 9.094117 -59.564018 16.674694 16.821243 -20.776323 -24.200228 38.210922 90.442467 92.245514 -4.893553 -5.051108 59.675430 11.651778 -55.361794 -90.405777 -20.052402 -6.606799 96.559227 -7.353359 1.707714 39.493183 1.618549 20.357464 
0.000000 7.522690 0.000000 -48.026028 0.432040 -1.982361 31.473249 -13.331900 0.837378 25.382343 5.609523 -3.063071 6.371657 2.445555 -0.458474 -24.333502 9.996986 9.000123 12.818349 -14.306571 -3.182500 -58.918037 -1.490264 -4.198714 -16.721474 9.920465 -22.008648 31.079367 9.632678 59.290352 28.904747 -6.407105 -5.471081 -10.008028 42.136082 -25.320244 17.242296 8.977330 -59.150791 16.127089 16.924278 -21.017462 -24.200228 38.210922 90.442467 92.245514 -4.893553 -5.051108 59.675430 11.651778 -55.361794 -90.405785 -20.052404 -6.606798 96.559227 -7.353359 1.707714 39.493183 1.618549 20.357464 
0.000000 7.522690 0.000000 -48.026028 0.432040 -1.982361 31.473249 -13.331899 0.837377 25.382343 5.609523 -3.063071 6.424591 2.509773 -0.523491 -24.333502 9.996986 9.000123 12.818349 -14.306571 -3.182500 -58.918037 -1.490265 -4.198715 -16.721472 9.920465 -22.008644 31.079369 9.632677 59.290344 28.904747 -6.407105 -5.471081 -10.008029 42.136082 -25.320248 17.409636 8.861550 -58.736710 15.577665 17.025299 -21.260223 -24.200228 38.210922 90.442467 92.245514 -4.893553 -5.051108 59.675430 11.651779 -55.361801 -90.405777 -20.052402 -6.606799 96.559227 -7.353359 1.707715 39.493183 1.618549 20.357464 
0.000000 7.522690 0.000000 -48.026028 0.432040 -1.982361 31.473249 -13.331899 0.837377 25.382343 5.609523 -3.063071 6.477465 2.574063 -0.588462 -24.333504 9.996987 9.000124 12.818349 -14.306571 -3.182500 -58.918037 -1.490265 -4.198715 -16.721474 9.920465 -22.008648 31.079367 9.632678 59.290344 28.904749 -6.407106 -5.471081 -10.008028 42.136082 -25.320244 17.578020 8.746799 -58.321804 15.026454 17.124271 -21.504585 -24.200232 38.210926 90.442467 92.245514 -4.893554 -5.051108 59.675430 11.651778 -55.361794 -90.405777 -20.052402 -6.606799 96.559227 -7.353359 1.707715 39.493183 1.618549 20.357464 
